<svg xmlns="http://www.w3.org/2000/svg" viewBox="0 0 64 64"><g data-name="25-Celsius"><path fill="#ffb145" d="M24,40.6a12,12,0,1,1-12,0V7a6,6,0,0,1,6-6,6.009,6.009,0,0,1,6,6Z"></path><path fill="#fc9508" d="M18,63A12.005,12.005,0,0,1,7.2,45.763a2,2,0,0,1,3.6,1.748A7.916,7.916,0,0,0,10,51a8,8,0,1,0,15.335-3.2A2,2,0,1,1,29,46.2,12,12,0,0,1,18,63Z"></path><rect width="3" height="33" x="12" y="6" fill="#fc9508" rx="1.5"></rect><rect width="3" height="33" x="21" y="6" fill="#fc9508" rx="1.5"></rect><rect width="6" height="2" x="18" y="11" fill="#a66205"></rect><rect width="6" height="2" x="18" y="17" fill="#a66205"></rect><rect width="6" height="2" x="18" y="23" fill="#a66205"></rect><rect width="6" height="2" x="18" y="29" fill="#a66205"></rect><rect width="6" height="2" x="18" y="35" fill="#a66205"></rect><path fill="#f7f7fc" d="M26,52a1,1,0,0,1-1-1,7.007,7.007,0,0,0-3.61-6.125,1,1,0,1,1,.97-1.75A9.011,9.011,0,0,1,27,51,1,1,0,0,1,26,52Z"></path><path fill="#f7f7fc" d="M24.929,56a1,1,0,0,1-.865-1.5,7.164,7.164,0,0,0,.428-.876,1,1,0,1,1,1.853.752A8.919,8.919,0,0,1,25.8,55.5,1,1,0,0,1,24.929,56Z"></path><rect width="3" height="2" x="21" y="11" fill="#804b04"></rect><rect width="3" height="2" x="21" y="17" fill="#804b04"></rect><rect width="3" height="2" x="21" y="23" fill="#804b04"></rect><rect width="3" height="2" x="21" y="29" fill="#804b04"></rect><rect width="3" height="2" x="21" y="35" fill="#804b04"></rect><circle cx="55" cy="4" r="3" fill="#ffb145"></circle><path fill="#ffb145" d="M52,29v2a8,8,0,0,1-8,8H39a9,9,0,0,1-9-9V16a9,9,0,0,1,9-9h5a8,8,0,0,1,8,8v2H48V15a4,4,0,0,0-4-4H40a6,6,0,0,0-6,6V29a6,6,0,0,0,6,6h4a4,4,0,0,0,4-4V29Z"></path></g></svg>