<svg xmlns="http://www.w3.org/2000/svg" viewBox="0 0 64 64"><g data-name="24-Humidity"><path fill="#5ec8e6" d="M33.78,1.72a2.56,2.56,0,0,0-3.56,0C23.81,8.03,10,30.66,10,41a22,22,0,0,0,44,0C54,30.66,40.19,8.03,33.78,1.72Z"></path><path fill="#26a5c9" d="M36,53A22,22,0,0,1,14,31a22.181,22.181,0,0,1,1.034-5.981C12.1,31.083,10,36.974,10,41a22,22,0,0,0,43.8,2.921A21.966,21.966,0,0,1,36,53Z"></path><path fill="#a4eaff" d="M35,13.072a2,2,0,0,1-1.672-.9c-.234-.356-.469-.7-.7-1.05a2,2,0,1,1,3.31-2.244q.366.537.732,1.1A2,2,0,0,1,35,13.072Z"></path><path fill="#a4eaff" d="M46.326,35a2,2,0,0,1-1.89-1.35,93.18,93.18,0,0,0-7.484-15.643,2,2,0,1,1,3.455-2.016,97.869,97.869,0,0,1,7.81,16.357A2,2,0,0,1,46.326,35Z"></path><path fill="#fff" d="M20,52a1,1,0,0,1-.707-1.707l24-24a1,1,0,0,1,1.414,1.414l-24,24A1,1,0,0,1,20,52Z"></path><path fill="#fff" d="M39,52a5,5,0,1,1,5-5A5.006,5.006,0,0,1,39,52Zm0-8a3,3,0,1,0,3,3A3,3,0,0,0,39,44Z"></path><path fill="#fff" d="M25,36a5,5,0,1,1,5-5A5.006,5.006,0,0,1,25,36Zm0-8a3,3,0,1,0,3,3A3,3,0,0,0,25,28Z"></path><path fill="#bed1d6" d="M19.293,51.707a1,1,0,0,0,1.414,0l2.684-2.684q-.828-.579-1.6-1.231l-2.5,2.5A1,1,0,0,0,19.293,51.707Z"></path></g></svg>