<svg xmlns="http://www.w3.org/2000/svg" viewBox="0 0 64 64"><g data-name="21-Clear"><path fill="#ffdc78" d="M62,48A32.391,32.391,0,0,1,34.323,63C16.475,63,2,48.944,2,31.613A31.472,31.472,0,0,1,27,1a29.534,29.534,0,0,0-5.808,17.861c0,16.793,14.02,30.407,31.313,30.407A32.146,32.146,0,0,0,62,48Z"></path><path fill="#ffb145" d="M10,27.613A31.1,31.1,0,0,1,23.585,1.953,31.368,31.368,0,0,0,2,31.613C2,48.944,16.475,63,34.323,63a33.069,33.069,0,0,0,18.789-5.762A33.686,33.686,0,0,1,42.323,59C24.475,59,10,44.944,10,27.613Z"></path></g></svg>